<svg width="14" height="14" viewBox="0 0 14 14" fill="none" xmlns="http://www.w3.org/2000/svg">
<path opacity="0.4" fill-rule="evenodd" clip-rule="evenodd" d="M13.2051 4.64163L12.8201 5.02678L8.97012 1.18405L9.35512 0.798904C10.0464 0.107388 11.0439 -0.155213 11.9801 0.0898813C12.9164 0.343729 13.6514 1.07026 13.9051 2.01562C14.1589 2.95223 13.8964 3.95011 13.2051 4.64163ZM11.5864 6.261L9.03137 8.81698L5.59263 12.2571C5.15513 12.6597 4.63888 12.9486 4.07013 13.1236L0.70139 13.9552C0.50889 14.0427 0.290141 13.999 0.141391 13.8502C0.0013913 13.7101 -0.0423586 13.4825 0.0451412 13.2987L0.88514 9.93741C1.05139 9.36845 1.34889 8.84324 1.75139 8.40558L5.19888 4.95675L7.75388 2.40077L11.5864 6.261Z" fill="#1A2048"/>
</svg>
