<svg width="16" height="16" viewBox="0 0 16 16" fill="none" xmlns="http://www.w3.org/2000/svg">
<path d="M8 16C3.5816 16 0 12.4184 0 8C0 3.5816 3.5816 0 8 0C12.4184 0 16 3.5816 16 8C16 12.4184 12.4184 16 8 16ZM8 14.4C9.69739 14.4 11.3253 13.7257 12.5255 12.5255C13.7257 11.3253 14.4 9.69739 14.4 8C14.4 6.30261 13.7257 4.67475 12.5255 3.47452C11.3253 2.27428 9.69739 1.6 8 1.6C6.30261 1.6 4.67475 2.27428 3.47452 3.47452C2.27428 4.67475 1.6 6.30261 1.6 8C1.6 9.69739 2.27428 11.3253 3.47452 12.5255C4.67475 13.7257 6.30261 14.4 8 14.4ZM8 3.2C8.84869 3.2 9.66263 3.53714 10.2627 4.13726C10.8629 4.73737 11.2 5.55131 11.2 6.4V8C11.2 8.84869 10.8629 9.66263 10.2627 10.2627C9.66263 10.8629 8.84869 11.2 8 11.2C7.15131 11.2 6.33737 10.8629 5.73726 10.2627C5.13714 9.66263 4.8 8.84869 4.8 8V6.4C4.8 5.55131 5.13714 4.73737 5.73726 4.13726C6.33737 3.53714 7.15131 3.2 8 3.2ZM8 4.8C7.57565 4.8 7.16869 4.96857 6.86863 5.26863C6.56857 5.56869 6.4 5.97565 6.4 6.4V8C6.4 8.42435 6.56857 8.83131 6.86863 9.13137C7.16869 9.43143 7.57565 9.6 8 9.6C8.42435 9.6 8.83131 9.43143 9.13137 9.13137C9.43143 8.83131 9.6 8.42435 9.6 8V6.4C9.6 5.97565 9.43143 5.56869 9.13137 5.26863C8.83131 4.96857 8.42435 4.8 8 4.8ZM4.728 13.5008C4.26719 13.2263 3.84255 12.8952 3.464 12.5152C3.93918 11.9568 4.54482 11.5243 5.2272 11.256C5.32556 11.214 5.43133 11.1922 5.53826 11.1918C5.6452 11.1914 5.75112 11.2125 5.84978 11.2537C5.94844 11.295 6.03783 11.3556 6.11265 11.432C6.18748 11.5084 6.24624 11.599 6.28545 11.6985C6.32465 11.798 6.34352 11.9043 6.34092 12.0112C6.33833 12.1181 6.31432 12.2234 6.27034 12.3209C6.22635 12.4184 6.16326 12.506 6.08481 12.5787C6.00636 12.6514 5.91414 12.7076 5.8136 12.744C5.388 12.912 5.0192 13.1744 4.7272 13.5008H4.728ZM11.2432 13.5184C10.9334 13.1758 10.5469 12.9115 10.1152 12.7472C10.014 12.7121 9.92094 12.657 9.84145 12.5853C9.76195 12.5135 9.69768 12.4265 9.65242 12.3295C9.60717 12.2324 9.58186 12.1273 9.57799 12.0203C9.57413 11.9133 9.59179 11.8065 9.62994 11.7065C9.66807 11.6064 9.72592 11.515 9.80003 11.4377C9.87415 11.3604 9.96302 11.2988 10.0614 11.2565C10.1598 11.2142 10.2656 11.1921 10.3727 11.1914C10.4798 11.1908 10.5859 11.2117 10.6848 11.2528C11.3918 11.5217 12.0201 11.9637 12.512 12.5384C12.1316 12.9168 11.7054 13.246 11.2432 13.5184Z" fill="#9BA5B5"/>
</svg>
