<svg width="20" height="16" viewBox="0 0 20 16" fill="none" xmlns="http://www.w3.org/2000/svg">
<path d="M5.676 5H4C3.46957 5 2.96086 5.21071 2.58579 5.58579C2.21071 5.96086 2 6.46957 2 7V12C2 12.5304 2.21071 13.0391 2.58579 13.4142C2.96086 13.7893 3.46957 14 4 14H16C16.5304 14 17.0391 13.7893 17.4142 13.4142C17.7893 13.0391 18 12.5304 18 12V7C18 6.46957 17.7893 5.96086 17.4142 5.58579C17.0391 5.21071 16.5304 5 16 5H14.324L13.937 3.499C13.8256 3.06996 13.575 2.69001 13.2245 2.41873C12.8739 2.14745 12.4433 2.00017 12 2H8C7.55665 1.99983 7.12582 2.14698 6.7752 2.41831C6.42458 2.68965 6.17406 3.06979 6.063 3.499L5.676 5ZM4.126 3C4.57 1.275 6.136 0 8 0H12C12.8869 0.000117948 13.7486 0.294824 14.4498 0.83783C15.151 1.38084 15.6519 2.14138 15.874 3H16C17.0609 3 18.0783 3.42143 18.8284 4.17157C19.5786 4.92172 20 5.93913 20 7V12C20 13.0609 19.5786 14.0783 18.8284 14.8284C18.0783 15.5786 17.0609 16 16 16H4C2.93913 16 1.92172 15.5786 1.17157 14.8284C0.421427 14.0783 0 13.0609 0 12V7C0 5.93913 0.421427 4.92172 1.17157 4.17157C1.92172 3.42143 2.93913 3 4 3H4.126ZM10 13C8.93913 13 7.92172 12.5786 7.17157 11.8284C6.42143 11.0783 6 10.0609 6 9C6 7.93913 6.42143 6.92172 7.17157 6.17157C7.92172 5.42143 8.93913 5 10 5C11.0609 5 12.0783 5.42143 12.8284 6.17157C13.5786 6.92172 14 7.93913 14 9C14 10.0609 13.5786 11.0783 12.8284 11.8284C12.0783 12.5786 11.0609 13 10 13ZM10 11C10.5304 11 11.0391 10.7893 11.4142 10.4142C11.7893 10.0391 12 9.53043 12 9C12 8.46957 11.7893 7.96086 11.4142 7.58579C11.0391 7.21071 10.5304 7 10 7C9.46957 7 8.96086 7.21071 8.58579 7.58579C8.21071 7.96086 8 8.46957 8 9C8 9.53043 8.21071 10.0391 8.58579 10.4142C8.96086 10.7893 9.46957 11 10 11ZM16 8C16.2652 8 16.5196 7.89464 16.7071 7.70711C16.8946 7.51957 17 7.26522 17 7C17 6.73478 16.8946 6.48043 16.7071 6.29289C16.5196 6.10536 16.2652 6 16 6C15.7348 6 15.4804 6.10536 15.2929 6.29289C15.1054 6.48043 15 6.73478 15 7C15 7.26522 15.1054 7.51957 15.2929 7.70711C15.4804 7.89464 15.7348 8 16 8Z" fill="#1A2048"/>
</svg>
