<svg width="13" height="16" viewBox="0 0 13 16" fill="none" xmlns="http://www.w3.org/2000/svg">
<path d="M8.2384 1.6H2.4C2.18783 1.6 1.98434 1.68429 1.83431 1.83431C1.68429 1.98434 1.6 2.18783 1.6 2.4V13.6C1.6 13.8122 1.68429 14.0157 1.83431 14.1657C1.98434 14.3157 2.18783 14.4 2.4 14.4H10.4C10.6122 14.4 10.8157 14.3157 10.9657 14.1657C11.1157 14.0157 11.2 13.8122 11.2 13.6V3.9688L8.2384 1.6ZM2.4 0H8.8L12.8 3.2V13.6C12.8 14.2365 12.5471 14.847 12.0971 15.2971C11.647 15.7471 11.0365 16 10.4 16H2.4C1.76348 16 1.15303 15.7471 0.702944 15.2971C0.252856 14.847 0 14.2365 0 13.6L0 2.4C0 1.76348 0.252856 1.15303 0.702944 0.702944C1.15303 0.252856 1.76348 0 2.4 0V0Z" fill="#9BA5B5"/>
</svg>
