<svg width="14" height="16" viewBox="0 0 14 16" fill="none" xmlns="http://www.w3.org/2000/svg">
<path fill-rule="evenodd" clip-rule="evenodd" d="M1.17157 10.7716C1.92172 10.0214 2.93913 9.6 4 9.6H9.6C10.6609 9.6 11.6783 10.0214 12.4284 10.7716C13.1786 11.5217 13.6 12.5391 13.6 13.6V15.2C13.6 15.6418 13.2418 16 12.8 16C12.3582 16 12 15.6418 12 15.2V13.6C12 12.9635 11.7471 12.353 11.2971 11.9029C10.847 11.4529 10.2365 11.2 9.6 11.2H4C3.36348 11.2 2.75303 11.4529 2.30294 11.9029C1.85286 12.353 1.6 12.9635 1.6 13.6V15.2C1.6 15.6418 1.24183 16 0.8 16C0.358172 16 0 15.6418 0 15.2V13.6C0 12.5391 0.421428 11.5217 1.17157 10.7716Z" fill="#9BA5B5"/>
<path fill-rule="evenodd" clip-rule="evenodd" d="M6.8 1.6C5.47452 1.6 4.4 2.67452 4.4 4C4.4 5.32548 5.47452 6.4 6.8 6.4C8.12548 6.4 9.2 5.32548 9.2 4C9.2 2.67452 8.12548 1.6 6.8 1.6ZM2.8 4C2.8 1.79086 4.59086 0 6.8 0C9.00914 0 10.8 1.79086 10.8 4C10.8 6.20914 9.00914 8 6.8 8C4.59086 8 2.8 6.20914 2.8 4Z" fill="#9BA5B5"/>
</svg>
