<svg width="19" height="18" viewBox="0 0 19 18" fill="none" xmlns="http://www.w3.org/2000/svg">
<path d="M3.19048 9.34527C3.37232 9.16391 3.61866 9.06205 3.87548 9.06205C4.1323 9.06205 4.37864 9.16391 4.56048 9.34527C4.65031 9.43499 4.72158 9.54153 4.7702 9.65881C4.81882 9.77609 4.84385 9.90181 4.84385 10.0288C4.84385 10.1557 4.81882 10.2814 4.7702 10.3987C4.72158 10.516 4.65031 10.6226 4.56048 10.7123L2.50548 12.7643C2.32567 12.9437 2.18301 13.1569 2.08568 13.3915C1.98834 13.6262 1.93824 13.8777 1.93824 14.1318C1.93824 14.3858 1.98834 14.6374 2.08568 14.872C2.18301 15.1067 2.32567 15.3198 2.50548 15.4993C2.86916 15.862 3.36184 16.0657 3.87548 16.0657C4.38913 16.0657 4.88181 15.862 5.24548 15.4993L10.0395 10.7123C10.1293 10.6226 10.2006 10.516 10.2492 10.3987C10.2978 10.2814 10.3229 10.1557 10.3229 10.0288C10.3229 9.90181 10.2978 9.77609 10.2492 9.65881C10.2006 9.54153 10.1293 9.43499 10.0395 9.34527C9.9495 9.25553 9.87811 9.14892 9.8294 9.03155C9.78068 8.91418 9.75561 8.78835 9.75561 8.66127C9.75561 8.53419 9.78068 8.40836 9.8294 8.29099C9.87811 8.17361 9.9495 8.067 10.0395 7.97727C10.2213 7.7959 10.4677 7.69405 10.7245 7.69405C10.9813 7.69405 11.2276 7.7959 11.4095 7.97727C11.6793 8.24646 11.8933 8.56622 12.0394 8.91825C12.1854 9.27027 12.2606 9.64765 12.2606 10.0288C12.2606 10.4099 12.1854 10.7873 12.0394 11.1393C11.8933 11.4913 11.6793 11.8111 11.4095 12.0803L6.61448 16.8673C5.88726 17.593 4.90185 18.0005 3.87448 18.0005C2.84711 18.0005 1.8617 17.593 1.13448 16.8673C0.774854 16.5084 0.489541 16.0821 0.294872 15.6127C0.100202 15.1434 0 14.6403 0 14.1323C0 13.6242 0.100202 13.1211 0.294872 12.6518C0.489541 12.1825 0.774854 11.7562 1.13448 11.3973L3.19048 9.34427V9.34527ZM14.8105 8.65527C14.6286 8.83663 14.3823 8.93848 14.1255 8.93848C13.8687 8.93848 13.6223 8.83663 13.4405 8.65527C13.3506 8.56555 13.2794 8.45901 13.2308 8.34173C13.1821 8.22444 13.1571 8.09873 13.1571 7.97177C13.1571 7.84481 13.1821 7.71909 13.2308 7.60181C13.2794 7.48453 13.3506 7.37799 13.4405 7.28827L15.4955 5.23627C15.6753 5.05682 15.818 4.84366 15.9153 4.60901C16.0126 4.37435 16.0627 4.12281 16.0627 3.86877C16.0627 3.61473 16.0126 3.36318 15.9153 3.12853C15.818 2.89388 15.6753 2.68072 15.4955 2.50127C15.1318 2.13854 14.6391 1.93484 14.1255 1.93484C13.6118 1.93484 13.1192 2.13854 12.7555 2.50127L7.96248 7.28827C7.87265 7.37799 7.80138 7.48453 7.75276 7.60181C7.70414 7.71909 7.67911 7.84481 7.67911 7.97177C7.67911 8.09873 7.70414 8.22444 7.75276 8.34173C7.80138 8.45901 7.87265 8.56555 7.96248 8.65527C8.05246 8.745 8.12385 8.85161 8.17257 8.96899C8.22128 9.08636 8.24635 9.21219 8.24635 9.33927C8.24635 9.46635 8.22128 9.59218 8.17257 9.70955C8.12385 9.82692 8.05246 9.93353 7.96248 10.0233C7.78064 10.2046 7.5343 10.3065 7.27748 10.3065C7.02066 10.3065 6.77432 10.2046 6.59248 10.0233C6.32269 9.75408 6.10864 9.43432 5.96259 9.08229C5.81655 8.73027 5.74137 8.35289 5.74137 7.97177C5.74137 7.59065 5.81655 7.21327 5.96259 6.86125C6.10864 6.50922 6.32269 6.18946 6.59248 5.92027L11.3875 1.13327C12.1147 0.407567 13.1001 0 14.1275 0C15.1549 0 16.1403 0.407567 16.8675 1.13327C17.2271 1.49217 17.5124 1.91848 17.7071 2.38779C17.9018 2.8571 18.002 3.36019 18.002 3.86827C18.002 4.37635 17.9018 4.87944 17.7071 5.34875C17.5124 5.81805 17.2271 6.24436 16.8675 6.60327L14.8105 8.65627V8.65527Z" fill="#1A2048"/>
</svg>
