<svg width="16" height="16" viewBox="0 0 16 16" fill="none" xmlns="http://www.w3.org/2000/svg">
<path d="M8 14.4C9.69739 14.4 11.3253 13.7257 12.5255 12.5255C13.7257 11.3253 14.4 9.69739 14.4 8C14.4 6.30261 13.7257 4.67475 12.5255 3.47452C11.3253 2.27428 9.69739 1.6 8 1.6C6.30261 1.6 4.67475 2.27428 3.47452 3.47452C2.27428 4.67475 1.6 6.30261 1.6 8C1.6 9.69739 2.27428 11.3253 3.47452 12.5255C4.67475 13.7257 6.30261 14.4 8 14.4ZM8 16C3.5816 16 0 12.4184 0 8C0 3.5816 3.5816 0 8 0C12.4184 0 16 3.5816 16 8C16 12.4184 12.4184 16 8 16Z" fill="#9BA5B5"/>
<path d="M9.448 12C10.8432 12 11.976 10.864 11.984 9.4768L12 7.4344L11.976 7.3224L11.9096 7.1832L11.796 7.0952C11.6488 6.98 10.9032 7.1032 10.7024 6.9208C10.56 6.7904 10.5376 6.556 10.4944 6.2368C10.4144 5.62 10.364 5.588 10.2672 5.3784C9.9152 4.6352 8.9632 4.0768 8.3088 4H6.5352C5.86439 4.00105 5.22125 4.2675 4.74624 4.74116C4.27124 5.21482 4.00296 5.8572 4 6.528V9.4768C4 10.864 5.1408 12 6.536 12H9.448ZM6.568 6.0648H7.9736C8.2416 6.0648 8.4592 6.2832 8.4592 6.548C8.4592 6.812 8.2416 7.0312 7.9736 7.0312H6.568C6.43969 7.03099 6.31666 6.98009 6.22571 6.88959C6.13475 6.79908 6.08324 6.67631 6.0824 6.548C6.0824 6.2832 6.2992 6.0648 6.568 6.0648ZM6.0824 9.44C6.0824 9.176 6.2992 8.9592 6.568 8.9592H9.424C9.6904 8.9592 9.9072 9.1752 9.9072 9.44C9.9072 9.7016 9.6912 9.9208 9.424 9.9208H6.568C6.44004 9.92081 6.31725 9.8703 6.22632 9.78027C6.13538 9.69024 6.08367 9.56796 6.0824 9.44Z" fill="#9BA5B5"/>
</svg>
