<svg width="15" height="16" viewBox="0 0 15 16" fill="none" xmlns="http://www.w3.org/2000/svg">
<path d="M7.2 14.4H12C12.2122 14.4 12.4157 14.3157 12.5657 14.1657C12.7157 14.0157 12.8 13.8122 12.8 13.6V2.4C12.8 2.18783 12.7157 1.98434 12.5657 1.83431C12.4157 1.68429 12.2122 1.6 12 1.6H2.4C2.18783 1.6 1.98434 1.68429 1.83431 1.83431C1.68429 1.98434 1.6 2.18783 1.6 2.4V13.6C1.6 13.8122 1.68429 14.0157 1.83431 14.1657C1.98434 14.3157 2.18783 14.4 2.4 14.4H5.6V6.4H1.6V4.8H12.8V6.4H7.2V14.4ZM2.4 0H12C12.6365 0 13.247 0.252856 13.6971 0.702944C14.1471 1.15303 14.4 1.76348 14.4 2.4V13.6C14.4 14.2365 14.1471 14.847 13.6971 15.2971C13.247 15.7471 12.6365 16 12 16H2.4C1.76348 16 1.15303 15.7471 0.702944 15.2971C0.252856 14.847 0 14.2365 0 13.6L0 2.4C0 1.76348 0.252856 1.15303 0.702944 0.702944C1.15303 0.252856 1.76348 0 2.4 0V0Z" fill="#9BA5B5"/>
</svg>
