<svg width="12" height="16" viewBox="0 0 12 16" fill="none" xmlns="http://www.w3.org/2000/svg">
<path d="M2.92728 6.95822H7.76275C7.8753 6.95822 7.98675 6.98121 8.09073 7.02589C8.19471 7.07056 8.28919 7.13603 8.36878 7.21857C8.44836 7.30111 8.51149 7.3991 8.55456 7.50695C8.59763 7.61479 8.6198 7.73038 8.6198 7.84711C8.6198 7.96384 8.59763 8.07943 8.55456 8.18727C8.51149 8.29512 8.44836 8.39311 8.36878 8.47565C8.28919 8.55819 8.19471 8.62367 8.09073 8.66834C7.98675 8.71301 7.8753 8.736 7.76275 8.736H2.92728L3.88889 9.73333C4.04959 9.90012 4.13983 10.1263 4.13975 10.3621C4.13967 10.5979 4.04928 10.824 3.88846 10.9907C3.72765 11.1573 3.50958 11.2509 3.28223 11.2508C3.05488 11.2508 2.83687 11.157 2.67617 10.9902L0.252433 8.47645C0.17244 8.39407 0.108953 8.29609 0.0656287 8.18816C0.0223046 8.08023 0 7.96447 0 7.84756C0 7.73064 0.0223046 7.61488 0.0656287 7.50695C0.108953 7.39902 0.17244 7.30104 0.252433 7.21867L2.67531 4.70489C2.83601 4.5381 3.05402 4.44435 3.28137 4.44426C3.50872 4.44418 3.72679 4.53777 3.88761 4.70444C4.04842 4.87112 4.13881 5.09722 4.13889 5.33302C4.13897 5.56882 4.04874 5.79499 3.88803 5.96178L2.92728 6.95822ZM11.143 0C11.3703 0 11.5882 0.0936505 11.749 0.26035C11.9097 0.427049 12 0.653141 12 0.888889V15.1111C12 15.3469 11.9097 15.573 11.749 15.7397C11.5882 15.9064 11.3703 16 11.143 16C10.9156 16 10.6977 15.9064 10.5369 15.7397C10.3762 15.573 10.2859 15.3469 10.2859 15.1111V0.888889C10.2859 0.653141 10.3762 0.427049 10.5369 0.26035C10.6977 0.0936505 10.9156 0 11.143 0V0Z" fill="#9BA5B5"/>
</svg>
