<svg width="16" height="16" viewBox="0 0 16 16" fill="none" xmlns="http://www.w3.org/2000/svg">
<path d="M1.6 4H14.4V1.6H1.6V4ZM14.4 5.6V15.2C14.4 15.4122 14.3157 15.6157 14.1657 15.7657C14.0157 15.9157 13.8122 16 13.6 16H2.4C2.18783 16 1.98434 15.9157 1.83431 15.7657C1.68429 15.6157 1.6 15.4122 1.6 15.2V5.6H0.8C0.587827 5.6 0.384344 5.51571 0.234315 5.36569C0.0842855 5.21566 0 5.01217 0 4.8V0.8C0 0.587827 0.0842855 0.384344 0.234315 0.234315C0.384344 0.0842855 0.587827 0 0.8 0L15.2 0C15.4122 0 15.6157 0.0842855 15.7657 0.234315C15.9157 0.384344 16 0.587827 16 0.8V4.8C16 5.01217 15.9157 5.21566 15.7657 5.36569C15.6157 5.51571 15.4122 5.6 15.2 5.6H14.4ZM3.2 14.4H12.8V5.6H3.2V14.4ZM6.4 11.2H9.6C9.81217 11.2 10.0157 11.2843 10.1657 11.4343C10.3157 11.5843 10.4 11.7878 10.4 12C10.4 12.2122 10.3157 12.4157 10.1657 12.5657C10.0157 12.7157 9.81217 12.8 9.6 12.8H6.4C6.18783 12.8 5.98434 12.7157 5.83431 12.5657C5.68429 12.4157 5.6 12.2122 5.6 12C5.6 11.7878 5.68429 11.5843 5.83431 11.4343C5.98434 11.2843 6.18783 11.2 6.4 11.2Z" fill="#9BA5B5"/>
</svg>
